<?xml version="1.0" encoding="iso-8859-1"?>
<!-- Uploaded to: SVG Repo, www.svgrepo.com, Generator: SVG Repo Mixer Tools -->
<svg fill="#000000" height="800px" width="800px" version="1.1" id="Layer_1" xmlns="http://www.w3.org/2000/svg" xmlns:xlink="http://www.w3.org/1999/xlink" 
	 viewBox="0 0 512.004 512.004" xml:space="preserve">
<g>
	<g>
		<g>
			<path d="M256.003,106.667c-82.481,0-149.333,66.853-149.333,149.333s66.853,149.333,149.333,149.333S405.337,338.481,405.337,256
				S338.484,106.667,256.003,106.667z M256.003,362.667c-58.917,0-106.667-47.75-106.667-106.667s47.75-106.667,106.667-106.667
				S362.67,197.083,362.67,256S314.92,362.667,256.003,362.667z"/>
			<path d="M256.003,170.667c-47.131,0-85.333,38.202-85.333,85.333s38.202,85.333,85.333,85.333s85.333-38.202,85.333-85.333
				S303.135,170.667,256.003,170.667z M256.003,298.667c-23.567,0-42.667-19.099-42.667-42.667s19.099-42.667,42.667-42.667
				S298.67,232.433,298.67,256S279.57,298.667,256.003,298.667z"/>
			<path d="M256.003,91.221c11.782,0,21.333-9.551,21.333-21.333V21.333C277.337,9.551,267.785,0,256.003,0
				S234.67,9.551,234.67,21.333v48.555C234.67,81.67,244.221,91.221,256.003,91.221z"/>
			<path d="M256.003,420.783c-11.782,0-21.333,9.551-21.333,21.333v48.555c0,11.782,9.551,21.333,21.333,21.333
				s21.333-9.551,21.333-21.333v-48.555C277.337,430.334,267.785,420.783,256.003,420.783z"/>
			<path d="M490.67,234.667h-48.555c-11.782,0-21.333,9.551-21.333,21.333s9.551,21.333,21.333,21.333h48.555
				c11.782,0,21.333-9.551,21.333-21.333S502.452,234.667,490.67,234.667z"/>
			<path d="M91.67,256c0-11.782-9.551-21.333-21.333-21.333H21.334c-11.782,0-21.333,9.551-21.333,21.333
				s9.551,21.333,21.333,21.333h49.003C82.119,277.333,91.67,267.782,91.67,256z"/>
			<path d="M402.689,139.484l46.421-46.421c8.331-8.331,8.331-21.839,0-30.17s-21.839-8.331-30.17,0l-46.421,46.421
				c-8.331,8.331-8.331,21.839,0,30.17S394.358,147.815,402.689,139.484z"/>
			<path d="M109.315,372.518L62.894,418.94c-8.331,8.331-8.331,21.839,0,30.17s21.839,8.331,30.17,0l46.421-46.421
				c8.331-8.331,8.331-21.839,0-30.17C131.154,364.187,117.646,364.187,109.315,372.518z"/>
			<path d="M402.689,372.516c-8.331-8.331-21.839-8.331-30.17,0s-8.331,21.839,0,30.17l46.421,46.421
				c8.331,8.331,21.839,8.331,30.17,0s8.331-21.839,0-30.17L402.689,372.516z"/>
			<path d="M109.315,139.482c8.331,8.331,21.839,8.331,30.17,0s8.331-21.839,0-30.17L93.064,62.891
				c-8.331-8.331-21.839-8.331-30.17,0s-8.331,21.839,0,30.17L109.315,139.482z"/>
			<path d="M441.325,154.161l-22.336,9.493c-10.843,4.609-15.898,17.135-11.289,27.978s17.135,15.897,27.978,11.289l22.336-9.493
				c10.843-4.609,15.898-17.135,11.289-27.978C464.694,154.606,452.168,149.552,441.325,154.161z"/>
			<path d="M70.692,357.848l22.336-9.493c10.843-4.609,15.898-17.135,11.289-27.978c-4.609-10.843-17.135-15.898-27.978-11.289
				l-22.336,9.493c-10.843,4.609-15.898,17.135-11.289,27.978C47.323,357.402,59.849,362.457,70.692,357.848z"/>
			<path d="M459.063,315.032l-22.507-9.088c-10.925-4.411-23.358,0.869-27.769,11.794c-4.411,10.925,0.869,23.358,11.794,27.769
				l22.507,9.088c10.925,4.411,23.358-0.869,27.769-11.794C475.268,331.876,469.988,319.444,459.063,315.032z"/>
			<path d="M52.946,196.974l22.507,9.088c10.925,4.411,23.358-0.869,27.769-11.794s-0.869-23.358-11.794-27.769l-22.507-9.088
				C57.996,153,45.563,158.28,41.152,169.205C36.74,180.13,42.021,192.563,52.946,196.974z"/>
			<path d="M348.349,418.985c-4.609-10.843-17.135-15.898-27.978-11.289s-15.897,17.135-11.289,27.978l9.493,22.336
				c4.609,10.843,17.135,15.898,27.978,11.289c10.843-4.609,15.897-17.135,11.289-27.978L348.349,418.985z"/>
			<path d="M163.649,93.025c4.609,10.843,17.135,15.898,27.978,11.289c10.843-4.609,15.898-17.135,11.289-27.978L193.422,54
				c-4.609-10.843-17.135-15.898-27.978-11.289c-10.843,4.609-15.897,17.135-11.289,27.978L163.649,93.025z"/>
			<path d="M194.265,408.784c-10.925-4.411-23.358,0.869-27.769,11.794l-9.088,22.507c-4.411,10.925,0.869,23.358,11.794,27.769
				c10.925,4.411,23.358-0.869,27.769-11.794l9.088-22.507C210.47,425.628,205.19,413.195,194.265,408.784z"/>
			<path d="M317.735,103.218c10.925,4.411,23.358-0.869,27.769-11.794l9.088-22.507c4.411-10.925-0.869-23.358-11.794-27.769
				s-23.358,0.869-27.769,11.794l-9.088,22.507C301.53,86.374,306.81,98.807,317.735,103.218z"/>
		</g>
	</g>
</g>
</svg>